<?xml version="1.0" encoding="iso-8859-1"?>
<!-- Generator: Adobe Illustrator 21.0.0, SVG Export Plug-In . SVG Version: 6.00 Build 0)  -->
<svg version="1.1" id="Layer_1" xmlns="http://www.w3.org/2000/svg" xmlns:xlink="http://www.w3.org/1999/xlink" x="0px" y="0px"
	 viewBox="0 0 100.353 100.353" style="enable-background:new 0 0 100.353 100.353;" xml:space="preserve">
<g>
	<path d="M20.961,55.588h12.802V42.787H20.961V55.588z M23.961,45.787h6.802v6.802h-6.802V45.787z"/>
	<path d="M43.822,55.588h12.802V42.787H43.822V55.588z M46.822,45.787h6.802v6.802h-6.802V45.787z"/>
	<path d="M65.949,55.618H78.81V42.757H65.949V55.618z M69.008,45.816h6.742v6.742h-6.742V45.816z"/>
	<path d="M20.961,77.915h12.802V65.113H20.961V77.915z M23.961,68.113h6.802v6.802h-6.802V68.113z"/>
	<path d="M43.822,77.915h12.802V65.113H43.822V77.915z M46.822,68.113h6.802v6.802h-6.802V68.113z"/>
	<path d="M65.949,77.945H78.81V65.083H65.949V77.945z M69.008,68.143h6.742v6.742h-6.742V68.143z"/>
	<path d="M79.248,13.621v-2.008c0-3.294-2.68-5.974-5.974-5.974S67.3,8.319,67.3,11.613v1.922H56.108v-1.922
		c0-3.278-2.667-5.944-5.944-5.944c-3.278,0-5.944,2.667-5.944,5.944v1.952H33v-1.952c0-3.278-2.667-5.944-5.944-5.944
		s-5.944,2.667-5.944,5.944v2.008H9.645v81.064h81.064V13.621H79.248z M70.359,11.613c0-1.607,1.308-2.915,2.915-2.915
		s2.915,1.308,2.915,2.915v8.31c0,1.607-1.308,2.915-2.915,2.915s-2.915-1.308-2.915-2.915V11.613z M47.22,11.613
		c0-1.624,1.321-2.944,2.944-2.944s2.944,1.321,2.944,2.944v8.31c0,1.624-1.321,2.944-2.944,2.944c-1.624,0-2.944-1.321-2.944-2.944
		V11.613z M24.111,11.613c0-1.624,1.321-2.944,2.944-2.944S30,9.989,30,11.613v8.31c0,1.624-1.321,2.944-2.944,2.944
		s-2.944-1.321-2.944-2.944L24.111,11.613L24.111,11.613z M87.709,91.685H12.645V16.621h8.466v3.302
		c0,3.278,2.667,5.944,5.944,5.944S33,23.201,33,19.923v-3.358h11.22v3.358c0,3.278,2.667,5.944,5.944,5.944
		s5.944-2.667,5.944-5.944v-3.328h11.191v3.328c0,3.294,2.68,5.974,5.974,5.974s5.974-2.68,5.974-5.974v-3.302h8.461L87.709,91.685
		L87.709,91.685z"/>
</g>
<g id="Layer_1_1_">
</g>
</svg>
